<svg width="194" height="193" viewBox="0 0 194 193" fill="none" xmlns="http://www.w3.org/2000/svg">
<circle cx="97" cy="96.5" r="96.5" fill="url(#paint0_linear_898_121)"/>
<path d="M193.5 96.5C193.5 119.874 185.016 142.453 169.625 160.044C154.234 177.635 132.981 189.042 109.814 192.145C86.6474 195.249 63.1414 189.839 43.6625 176.92C24.1836 164.001 10.0557 144.451 3.90315 121.901C-2.24943 99.3518 -0.00852984 75.3357 10.2096 54.3137C20.4278 33.2918 37.9286 16.693 59.4614 7.6006C80.9942 -1.49182 105.095 -2.45984 127.288 4.87634C149.481 12.2125 168.256 27.3542 180.127 47.489L97 96.5H193.5Z" fill="url(#paint1_linear_898_121)"/>
<path d="M193.5 96.5C193.5 113.926 188.782 131.026 179.846 145.986C170.91 160.946 158.09 173.207 142.746 181.468C127.403 189.728 110.11 193.68 92.7014 192.904C75.2931 192.128 58.4198 186.652 43.8728 177.059C29.3258 167.466 17.6479 154.112 10.0789 138.416C2.5098 122.72 -0.667943 105.268 0.882962 87.9113C2.43387 70.5549 8.65554 53.9423 18.8875 39.8371C29.1195 25.7318 42.9799 14.6603 58.9973 7.79798L97 96.5H193.5Z" fill="url(#paint2_linear_898_121)"/>
<path d="M193.5 96.5C193.5 117.276 186.795 137.497 174.382 154.157C161.968 170.817 144.51 183.026 124.602 188.968C104.694 194.911 83.4 194.27 63.8856 187.14C44.3713 180.011 27.6788 166.774 16.2902 149.398L97 96.5H193.5Z" fill="url(#paint3_linear_898_121)"/>
<path d="M193.5 96.5C193.5 111.133 190.172 125.575 183.768 138.733C177.363 151.89 168.051 163.419 156.534 172.447L97 96.5H193.5Z" fill="url(#paint4_linear_898_121)"/>
<path d="M145.632 127.106V128H140.976V127.106H142.8V121.46C142.8 121.28 142.806 121.094 142.818 120.902L141.354 122.144C141.298 122.188 141.242 122.216 141.186 122.228C141.13 122.24 141.076 122.242 141.024 122.234C140.976 122.226 140.932 122.21 140.892 122.186C140.856 122.158 140.826 122.13 140.802 122.102L140.436 121.592L143.016 119.366H143.97V127.106H145.632ZM150.429 127.118C150.705 127.118 150.955 127.074 151.179 126.986C151.403 126.894 151.595 126.77 151.755 126.614C151.915 126.458 152.039 126.272 152.127 126.056C152.215 125.84 152.259 125.606 152.259 125.354C152.259 125.078 152.215 124.832 152.127 124.616C152.043 124.396 151.923 124.21 151.767 124.058C151.615 123.906 151.431 123.79 151.215 123.71C150.999 123.63 150.759 123.59 150.495 123.59C150.219 123.59 149.971 123.638 149.751 123.734C149.531 123.826 149.343 123.952 149.187 124.112C149.031 124.268 148.911 124.452 148.827 124.664C148.743 124.876 148.701 125.098 148.701 125.33C148.701 125.594 148.739 125.836 148.815 126.056C148.891 126.276 149.003 126.464 149.151 126.62C149.299 126.776 149.479 126.898 149.691 126.986C149.907 127.074 150.153 127.118 150.429 127.118ZM149.877 122.588C149.809 122.676 149.741 122.762 149.673 122.846C149.609 122.926 149.547 123.006 149.487 123.086C149.679 122.962 149.891 122.866 150.123 122.798C150.359 122.73 150.613 122.696 150.885 122.696C151.225 122.696 151.549 122.752 151.857 122.864C152.165 122.976 152.435 123.14 152.667 123.356C152.903 123.572 153.089 123.84 153.225 124.16C153.361 124.48 153.429 124.848 153.429 125.264C153.429 125.66 153.357 126.032 153.213 126.38C153.069 126.724 152.865 127.024 152.601 127.28C152.341 127.532 152.029 127.732 151.665 127.88C151.301 128.024 150.897 128.096 150.453 128.096C150.013 128.096 149.615 128.026 149.259 127.886C148.907 127.746 148.605 127.548 148.353 127.292C148.105 127.032 147.913 126.72 147.777 126.356C147.641 125.988 147.573 125.58 147.573 125.132C147.573 124.748 147.655 124.344 147.819 123.92C147.987 123.492 148.251 123.036 148.611 122.552L150.765 119.666C150.825 119.586 150.909 119.52 151.017 119.468C151.125 119.412 151.249 119.384 151.389 119.384H152.433L149.877 122.588ZM158.79 121.466C158.79 121.802 158.736 122.102 158.628 122.366C158.524 122.63 158.384 122.854 158.208 123.038C158.032 123.218 157.826 123.358 157.59 123.458C157.358 123.554 157.114 123.602 156.858 123.602C156.582 123.602 156.326 123.554 156.09 123.458C155.858 123.358 155.656 123.218 155.484 123.038C155.312 122.854 155.176 122.63 155.076 122.366C154.98 122.102 154.932 121.802 154.932 121.466C154.932 121.122 154.98 120.816 155.076 120.548C155.176 120.28 155.312 120.054 155.484 119.87C155.656 119.682 155.858 119.54 156.09 119.444C156.326 119.344 156.582 119.294 156.858 119.294C157.134 119.294 157.388 119.344 157.62 119.444C157.856 119.54 158.06 119.682 158.232 119.87C158.408 120.054 158.544 120.28 158.64 120.548C158.74 120.816 158.79 121.122 158.79 121.466ZM157.878 121.466C157.878 121.21 157.85 120.994 157.794 120.818C157.742 120.638 157.67 120.494 157.578 120.386C157.486 120.274 157.378 120.194 157.254 120.146C157.13 120.094 156.998 120.068 156.858 120.068C156.718 120.068 156.586 120.094 156.462 120.146C156.338 120.194 156.23 120.274 156.138 120.386C156.05 120.494 155.98 120.638 155.928 120.818C155.876 120.994 155.85 121.21 155.85 121.466C155.85 121.714 155.876 121.926 155.928 122.102C155.98 122.274 156.05 122.414 156.138 122.522C156.23 122.63 156.338 122.708 156.462 122.756C156.586 122.804 156.718 122.828 156.858 122.828C156.998 122.828 157.13 122.804 157.254 122.756C157.378 122.708 157.486 122.63 157.578 122.522C157.67 122.414 157.742 122.274 157.794 122.102C157.85 121.926 157.878 121.714 157.878 121.466ZM161.79 119.576C161.834 119.524 161.884 119.48 161.94 119.444C162 119.404 162.082 119.384 162.186 119.384H163.032L156.708 127.814C156.664 127.87 156.612 127.916 156.552 127.952C156.492 127.984 156.42 128 156.336 128H155.466L161.79 119.576ZM163.584 125.966C163.584 126.302 163.53 126.602 163.422 126.866C163.318 127.13 163.178 127.354 163.002 127.538C162.826 127.718 162.62 127.858 162.384 127.958C162.152 128.054 161.908 128.102 161.652 128.102C161.376 128.102 161.12 128.054 160.884 127.958C160.652 127.858 160.45 127.718 160.278 127.538C160.106 127.354 159.97 127.13 159.87 126.866C159.774 126.602 159.726 126.302 159.726 125.966C159.726 125.622 159.774 125.316 159.87 125.048C159.97 124.78 160.106 124.554 160.278 124.37C160.45 124.182 160.652 124.04 160.884 123.944C161.12 123.848 161.376 123.8 161.652 123.8C161.928 123.8 162.182 123.848 162.414 123.944C162.65 124.04 162.854 124.182 163.026 124.37C163.202 124.554 163.338 124.78 163.434 125.048C163.534 125.316 163.584 125.622 163.584 125.966ZM162.672 125.966C162.672 125.71 162.644 125.494 162.588 125.318C162.536 125.142 162.464 125 162.372 124.892C162.28 124.78 162.172 124.7 162.048 124.652C161.924 124.6 161.792 124.574 161.652 124.574C161.508 124.574 161.374 124.6 161.25 124.652C161.13 124.7 161.024 124.78 160.932 124.892C160.844 125 160.774 125.142 160.722 125.318C160.67 125.494 160.644 125.71 160.644 125.966C160.644 126.218 160.67 126.43 160.722 126.602C160.774 126.774 160.844 126.914 160.932 127.022C161.024 127.13 161.13 127.208 161.25 127.256C161.374 127.304 161.508 127.328 161.652 127.328C161.792 127.328 161.924 127.304 162.048 127.256C162.172 127.208 162.28 127.13 162.372 127.022C162.464 126.914 162.536 126.774 162.588 126.602C162.644 126.43 162.672 126.218 162.672 125.966Z" fill="black"/>
<path d="M90.416 147.89C90.544 147.89 90.644 147.928 90.716 148.004C90.788 148.076 90.824 148.172 90.824 148.292V149H85.04V148.598C85.04 148.518 85.056 148.434 85.088 148.346C85.12 148.254 85.174 148.172 85.25 148.1L87.974 145.37C88.202 145.142 88.408 144.922 88.592 144.71C88.776 144.498 88.932 144.288 89.06 144.08C89.188 143.868 89.286 143.652 89.354 143.432C89.426 143.212 89.462 142.98 89.462 142.736C89.462 142.496 89.424 142.286 89.348 142.106C89.272 141.922 89.168 141.77 89.036 141.65C88.904 141.53 88.748 141.44 88.568 141.38C88.388 141.32 88.194 141.29 87.986 141.29C87.778 141.29 87.586 141.32 87.41 141.38C87.238 141.44 87.084 141.524 86.948 141.632C86.812 141.74 86.698 141.868 86.606 142.016C86.514 142.164 86.448 142.324 86.408 142.496C86.352 142.648 86.28 142.75 86.192 142.802C86.108 142.854 85.984 142.866 85.82 142.838L85.208 142.73C85.264 142.33 85.374 141.978 85.538 141.674C85.702 141.37 85.908 141.116 86.156 140.912C86.404 140.704 86.688 140.548 87.008 140.444C87.332 140.34 87.68 140.288 88.052 140.288C88.428 140.288 88.774 140.344 89.09 140.456C89.41 140.564 89.686 140.722 89.918 140.93C90.15 141.138 90.332 141.392 90.464 141.692C90.596 141.988 90.662 142.324 90.662 142.7C90.662 143.02 90.614 143.318 90.518 143.594C90.426 143.866 90.298 144.126 90.134 144.374C89.974 144.622 89.786 144.864 89.57 145.1C89.358 145.332 89.132 145.568 88.892 145.808L86.708 148.04C86.876 147.996 87.044 147.96 87.212 147.932C87.384 147.904 87.546 147.89 87.698 147.89H90.416ZM94.1989 143.6C94.6389 143.508 95.0369 143.462 95.3929 143.462C95.8409 143.462 96.2369 143.53 96.5809 143.666C96.9249 143.798 97.2129 143.982 97.4449 144.218C97.6809 144.45 97.8569 144.726 97.9729 145.046C98.0929 145.362 98.1529 145.706 98.1529 146.078C98.1529 146.534 98.0729 146.948 97.9129 147.32C97.7529 147.692 97.5329 148.01 97.2529 148.274C96.9729 148.538 96.6409 148.742 96.2569 148.886C95.8769 149.026 95.4669 149.096 95.0269 149.096C94.7669 149.096 94.5189 149.07 94.2829 149.018C94.0509 148.966 93.8329 148.898 93.6289 148.814C93.4249 148.726 93.2349 148.626 93.0589 148.514C92.8869 148.402 92.7329 148.284 92.5969 148.16L92.9569 147.656C93.0329 147.544 93.1349 147.488 93.2629 147.488C93.3469 147.488 93.4389 147.52 93.5389 147.584C93.6429 147.644 93.7649 147.712 93.9049 147.788C94.0449 147.864 94.2109 147.934 94.4029 147.998C94.5949 148.058 94.8229 148.088 95.0869 148.088C95.3789 148.088 95.6409 148.042 95.8729 147.95C96.1089 147.854 96.3069 147.72 96.4669 147.548C96.6309 147.376 96.7549 147.17 96.8389 146.93C96.9269 146.69 96.9709 146.424 96.9709 146.132C96.9709 145.872 96.9329 145.638 96.8569 145.43C96.7809 145.222 96.6669 145.044 96.5149 144.896C96.3629 144.748 96.1729 144.636 95.9449 144.56C95.7169 144.48 95.4509 144.44 95.1469 144.44C94.7229 144.44 94.2709 144.516 93.7909 144.668L93.0529 144.452L93.7549 140.384H97.8829V140.894C97.8829 141.062 97.8289 141.2 97.7209 141.308C97.6169 141.412 97.4409 141.464 97.1929 141.464H94.5709L94.1989 143.6ZM103.79 142.466C103.79 142.802 103.736 143.102 103.628 143.366C103.524 143.63 103.384 143.854 103.208 144.038C103.032 144.218 102.826 144.358 102.59 144.458C102.358 144.554 102.114 144.602 101.858 144.602C101.582 144.602 101.326 144.554 101.09 144.458C100.858 144.358 100.656 144.218 100.484 144.038C100.312 143.854 100.176 143.63 100.076 143.366C99.9799 143.102 99.9319 142.802 99.9319 142.466C99.9319 142.122 99.9799 141.816 100.076 141.548C100.176 141.28 100.312 141.054 100.484 140.87C100.656 140.682 100.858 140.54 101.09 140.444C101.326 140.344 101.582 140.294 101.858 140.294C102.134 140.294 102.388 140.344 102.62 140.444C102.856 140.54 103.06 140.682 103.232 140.87C103.408 141.054 103.544 141.28 103.64 141.548C103.74 141.816 103.79 142.122 103.79 142.466ZM102.878 142.466C102.878 142.21 102.85 141.994 102.794 141.818C102.742 141.638 102.67 141.494 102.578 141.386C102.486 141.274 102.378 141.194 102.254 141.146C102.13 141.094 101.998 141.068 101.858 141.068C101.718 141.068 101.586 141.094 101.462 141.146C101.338 141.194 101.23 141.274 101.138 141.386C101.05 141.494 100.98 141.638 100.928 141.818C100.876 141.994 100.85 142.21 100.85 142.466C100.85 142.714 100.876 142.926 100.928 143.102C100.98 143.274 101.05 143.414 101.138 143.522C101.23 143.63 101.338 143.708 101.462 143.756C101.586 143.804 101.718 143.828 101.858 143.828C101.998 143.828 102.13 143.804 102.254 143.756C102.378 143.708 102.486 143.63 102.578 143.522C102.67 143.414 102.742 143.274 102.794 143.102C102.85 142.926 102.878 142.714 102.878 142.466ZM106.79 140.576C106.834 140.524 106.884 140.48 106.94 140.444C107 140.404 107.082 140.384 107.186 140.384H108.032L101.708 148.814C101.664 148.87 101.612 148.916 101.552 148.952C101.492 148.984 101.42 149 101.336 149H100.466L106.79 140.576ZM108.584 146.966C108.584 147.302 108.53 147.602 108.422 147.866C108.318 148.13 108.178 148.354 108.002 148.538C107.826 148.718 107.62 148.858 107.384 148.958C107.152 149.054 106.908 149.102 106.652 149.102C106.376 149.102 106.12 149.054 105.884 148.958C105.652 148.858 105.45 148.718 105.278 148.538C105.106 148.354 104.97 148.13 104.87 147.866C104.774 147.602 104.726 147.302 104.726 146.966C104.726 146.622 104.774 146.316 104.87 146.048C104.97 145.78 105.106 145.554 105.278 145.37C105.45 145.182 105.652 145.04 105.884 144.944C106.12 144.848 106.376 144.8 106.652 144.8C106.928 144.8 107.182 144.848 107.414 144.944C107.65 145.04 107.854 145.182 108.026 145.37C108.202 145.554 108.338 145.78 108.434 146.048C108.534 146.316 108.584 146.622 108.584 146.966ZM107.672 146.966C107.672 146.71 107.644 146.494 107.588 146.318C107.536 146.142 107.464 146 107.372 145.892C107.28 145.78 107.172 145.7 107.048 145.652C106.924 145.6 106.792 145.574 106.652 145.574C106.508 145.574 106.374 145.6 106.25 145.652C106.13 145.7 106.024 145.78 105.932 145.892C105.844 146 105.774 146.142 105.722 146.318C105.67 146.494 105.644 146.71 105.644 146.966C105.644 147.218 105.67 147.43 105.722 147.602C105.774 147.774 105.844 147.914 105.932 148.022C106.024 148.13 106.13 148.208 106.25 148.256C106.374 148.304 106.508 148.328 106.652 148.328C106.792 148.328 106.924 148.304 107.048 148.256C107.172 148.208 107.28 148.13 107.372 148.022C107.464 147.914 107.536 147.774 107.588 147.602C107.644 147.43 107.672 147.218 107.672 146.966Z" fill="black"/>
<path d="M38.416 88.89C38.544 88.89 38.644 88.928 38.716 89.004C38.788 89.076 38.824 89.172 38.824 89.292V90H33.04V89.598C33.04 89.518 33.056 89.434 33.088 89.346C33.12 89.254 33.174 89.172 33.25 89.1L35.974 86.37C36.202 86.142 36.408 85.922 36.592 85.71C36.776 85.498 36.932 85.288 37.06 85.08C37.188 84.868 37.286 84.652 37.354 84.432C37.426 84.212 37.462 83.98 37.462 83.736C37.462 83.496 37.424 83.286 37.348 83.106C37.272 82.922 37.168 82.77 37.036 82.65C36.904 82.53 36.748 82.44 36.568 82.38C36.388 82.32 36.194 82.29 35.986 82.29C35.778 82.29 35.586 82.32 35.41 82.38C35.238 82.44 35.084 82.524 34.948 82.632C34.812 82.74 34.698 82.868 34.606 83.016C34.514 83.164 34.448 83.324 34.408 83.496C34.352 83.648 34.28 83.75 34.192 83.802C34.108 83.854 33.984 83.866 33.82 83.838L33.208 83.73C33.264 83.33 33.374 82.978 33.538 82.674C33.702 82.37 33.908 82.116 34.156 81.912C34.404 81.704 34.688 81.548 35.008 81.444C35.332 81.34 35.68 81.288 36.052 81.288C36.428 81.288 36.774 81.344 37.09 81.456C37.41 81.564 37.686 81.722 37.918 81.93C38.15 82.138 38.332 82.392 38.464 82.692C38.596 82.988 38.662 83.324 38.662 83.7C38.662 84.02 38.614 84.318 38.518 84.594C38.426 84.866 38.298 85.126 38.134 85.374C37.974 85.622 37.786 85.864 37.57 86.1C37.358 86.332 37.132 86.568 36.892 86.808L34.708 89.04C34.876 88.996 35.044 88.96 35.212 88.932C35.384 88.904 35.546 88.89 35.698 88.89H38.416ZM43.4409 89.166C43.7129 89.166 43.9549 89.128 44.1669 89.052C44.3789 88.976 44.5589 88.87 44.7069 88.734C44.8549 88.594 44.9669 88.428 45.0429 88.236C45.1189 88.044 45.1569 87.834 45.1569 87.606C45.1569 87.326 45.1109 87.086 45.0189 86.886C44.9269 86.682 44.8029 86.516 44.6469 86.388C44.4909 86.256 44.3089 86.16 44.1009 86.1C43.8929 86.036 43.6729 86.004 43.4409 86.004C43.2049 86.004 42.9829 86.036 42.7749 86.1C42.5669 86.16 42.3849 86.256 42.2289 86.388C42.0729 86.516 41.9489 86.682 41.8569 86.886C41.7689 87.086 41.7249 87.326 41.7249 87.606C41.7249 87.834 41.7629 88.044 41.8389 88.236C41.9149 88.428 42.0269 88.594 42.1749 88.734C42.3229 88.87 42.5029 88.976 42.7149 89.052C42.9269 89.128 43.1689 89.166 43.4409 89.166ZM43.4409 82.188C43.1929 82.188 42.9749 82.226 42.7869 82.302C42.6029 82.374 42.4489 82.474 42.3249 82.602C42.2009 82.73 42.1069 82.878 42.0429 83.046C41.9829 83.214 41.9529 83.394 41.9529 83.586C41.9529 83.774 41.9789 83.958 42.0309 84.138C42.0869 84.314 42.1729 84.472 42.2889 84.612C42.4089 84.748 42.5629 84.858 42.7509 84.942C42.9389 85.026 43.1689 85.068 43.4409 85.068C43.7089 85.068 43.9369 85.026 44.1249 84.942C44.3169 84.858 44.4709 84.748 44.5869 84.612C44.7069 84.472 44.7929 84.314 44.8449 84.138C44.9009 83.958 44.9289 83.774 44.9289 83.586C44.9289 83.394 44.8969 83.214 44.8329 83.046C44.7729 82.878 44.6809 82.73 44.5569 82.602C44.4329 82.474 44.2769 82.374 44.0889 82.302C43.9049 82.226 43.6889 82.188 43.4409 82.188ZM44.7309 85.506C45.2669 85.666 45.6729 85.924 45.9489 86.28C46.2289 86.636 46.3689 87.086 46.3689 87.63C46.3689 88.006 46.2969 88.346 46.1529 88.65C46.0129 88.954 45.8129 89.214 45.5529 89.43C45.2969 89.642 44.9889 89.806 44.6289 89.922C44.2689 90.038 43.8729 90.096 43.4409 90.096C43.0089 90.096 42.6129 90.038 42.2529 89.922C41.8929 89.806 41.5829 89.642 41.3229 89.43C41.0669 89.214 40.8669 88.954 40.7229 88.65C40.5829 88.346 40.5129 88.006 40.5129 87.63C40.5129 87.086 40.6509 86.636 40.9269 86.28C41.2069 85.924 41.6149 85.666 42.1509 85.506C41.7069 85.338 41.3729 85.088 41.1489 84.756C40.9249 84.42 40.8129 84.022 40.8129 83.562C40.8129 83.242 40.8749 82.944 40.9989 82.668C41.1269 82.388 41.3049 82.146 41.5329 81.942C41.7649 81.738 42.0429 81.578 42.3669 81.462C42.6909 81.346 43.0489 81.288 43.4409 81.288C43.8329 81.288 44.1909 81.346 44.5149 81.462C44.8389 81.578 45.1149 81.738 45.3429 81.942C45.5749 82.146 45.7529 82.388 45.8769 82.668C46.0049 82.944 46.0689 83.242 46.0689 83.562C46.0689 84.022 45.9569 84.42 45.7329 84.756C45.5089 85.088 45.1749 85.338 44.7309 85.506ZM51.7899 83.466C51.7899 83.802 51.7359 84.102 51.6279 84.366C51.5239 84.63 51.3839 84.854 51.2079 85.038C51.0319 85.218 50.8259 85.358 50.5899 85.458C50.3579 85.554 50.1139 85.602 49.8579 85.602C49.5819 85.602 49.3259 85.554 49.0899 85.458C48.8579 85.358 48.6559 85.218 48.4839 85.038C48.3119 84.854 48.1759 84.63 48.0759 84.366C47.9799 84.102 47.9319 83.802 47.9319 83.466C47.9319 83.122 47.9799 82.816 48.0759 82.548C48.1759 82.28 48.3119 82.054 48.4839 81.87C48.6559 81.682 48.8579 81.54 49.0899 81.444C49.3259 81.344 49.5819 81.294 49.8579 81.294C50.1339 81.294 50.3879 81.344 50.6199 81.444C50.8559 81.54 51.0599 81.682 51.2319 81.87C51.4079 82.054 51.5439 82.28 51.6399 82.548C51.7399 82.816 51.7899 83.122 51.7899 83.466ZM50.8779 83.466C50.8779 83.21 50.8499 82.994 50.7939 82.818C50.7419 82.638 50.6699 82.494 50.5779 82.386C50.4859 82.274 50.3779 82.194 50.2539 82.146C50.1299 82.094 49.9979 82.068 49.8579 82.068C49.7179 82.068 49.5859 82.094 49.4619 82.146C49.3379 82.194 49.2299 82.274 49.1379 82.386C49.0499 82.494 48.9799 82.638 48.9279 82.818C48.8759 82.994 48.8499 83.21 48.8499 83.466C48.8499 83.714 48.8759 83.926 48.9279 84.102C48.9799 84.274 49.0499 84.414 49.1379 84.522C49.2299 84.63 49.3379 84.708 49.4619 84.756C49.5859 84.804 49.7179 84.828 49.8579 84.828C49.9979 84.828 50.1299 84.804 50.2539 84.756C50.3779 84.708 50.4859 84.63 50.5779 84.522C50.6699 84.414 50.7419 84.274 50.7939 84.102C50.8499 83.926 50.8779 83.714 50.8779 83.466ZM54.7899 81.576C54.8339 81.524 54.8839 81.48 54.9399 81.444C54.9999 81.404 55.0819 81.384 55.1859 81.384H56.0319L49.7079 89.814C49.6639 89.87 49.6119 89.916 49.5519 89.952C49.4919 89.984 49.4199 90 49.3359 90H48.4659L54.7899 81.576ZM56.5839 87.966C56.5839 88.302 56.5299 88.602 56.4219 88.866C56.3179 89.13 56.1779 89.354 56.0019 89.538C55.8259 89.718 55.6199 89.858 55.3839 89.958C55.1519 90.054 54.9079 90.102 54.6519 90.102C54.3759 90.102 54.1199 90.054 53.8839 89.958C53.6519 89.858 53.4499 89.718 53.2779 89.538C53.1059 89.354 52.9699 89.13 52.8699 88.866C52.7739 88.602 52.7259 88.302 52.7259 87.966C52.7259 87.622 52.7739 87.316 52.8699 87.048C52.9699 86.78 53.1059 86.554 53.2779 86.37C53.4499 86.182 53.6519 86.04 53.8839 85.944C54.1199 85.848 54.3759 85.8 54.6519 85.8C54.9279 85.8 55.1819 85.848 55.4139 85.944C55.6499 86.04 55.8539 86.182 56.0259 86.37C56.2019 86.554 56.3379 86.78 56.4339 87.048C56.5339 87.316 56.5839 87.622 56.5839 87.966ZM55.6719 87.966C55.6719 87.71 55.6439 87.494 55.5879 87.318C55.5359 87.142 55.4639 87 55.3719 86.892C55.2799 86.78 55.1719 86.7 55.0479 86.652C54.9239 86.6 54.7919 86.574 54.6519 86.574C54.5079 86.574 54.3739 86.6 54.2499 86.652C54.1299 86.7 54.0239 86.78 53.9319 86.892C53.8439 87 53.7739 87.142 53.7219 87.318C53.6699 87.494 53.6439 87.71 53.6439 87.966C53.6439 88.218 53.6699 88.43 53.7219 88.602C53.7739 88.774 53.8439 88.914 53.9319 89.022C54.0239 89.13 54.1299 89.208 54.2499 89.256C54.3739 89.304 54.5079 89.328 54.6519 89.328C54.7919 89.328 54.9239 89.304 55.0479 89.256C55.1719 89.208 55.2799 89.13 55.3719 89.022C55.4639 88.914 55.5359 88.774 55.5879 88.602C55.6439 88.43 55.6719 88.218 55.6719 87.966Z" fill="black"/>
<path d="M103.416 48.89C103.544 48.89 103.644 48.928 103.716 49.004C103.788 49.076 103.824 49.172 103.824 49.292V50H98.04V49.598C98.04 49.518 98.056 49.434 98.088 49.346C98.12 49.254 98.174 49.172 98.25 49.1L100.974 46.37C101.202 46.142 101.408 45.922 101.592 45.71C101.776 45.498 101.932 45.288 102.06 45.08C102.188 44.868 102.286 44.652 102.354 44.432C102.426 44.212 102.462 43.98 102.462 43.736C102.462 43.496 102.424 43.286 102.348 43.106C102.272 42.922 102.168 42.77 102.036 42.65C101.904 42.53 101.748 42.44 101.568 42.38C101.388 42.32 101.194 42.29 100.986 42.29C100.778 42.29 100.586 42.32 100.41 42.38C100.238 42.44 100.084 42.524 99.948 42.632C99.812 42.74 99.698 42.868 99.606 43.016C99.514 43.164 99.448 43.324 99.408 43.496C99.352 43.648 99.28 43.75 99.192 43.802C99.108 43.854 98.984 43.866 98.82 43.838L98.208 43.73C98.264 43.33 98.374 42.978 98.538 42.674C98.702 42.37 98.908 42.116 99.156 41.912C99.404 41.704 99.688 41.548 100.008 41.444C100.332 41.34 100.68 41.288 101.052 41.288C101.428 41.288 101.774 41.344 102.09 41.456C102.41 41.564 102.686 41.722 102.918 41.93C103.15 42.138 103.332 42.392 103.464 42.692C103.596 42.988 103.662 43.324 103.662 43.7C103.662 44.02 103.614 44.318 103.518 44.594C103.426 44.866 103.298 45.126 103.134 45.374C102.974 45.622 102.786 45.864 102.57 46.1C102.358 46.332 102.132 46.568 101.892 46.808L99.708 49.04C99.876 48.996 100.044 48.96 100.212 48.932C100.384 48.904 100.546 48.89 100.698 48.89H103.416ZM110.877 48.89C111.005 48.89 111.105 48.928 111.177 49.004C111.249 49.076 111.285 49.172 111.285 49.292V50H105.501V49.598C105.501 49.518 105.517 49.434 105.549 49.346C105.581 49.254 105.635 49.172 105.711 49.1L108.435 46.37C108.663 46.142 108.869 45.922 109.053 45.71C109.237 45.498 109.393 45.288 109.521 45.08C109.649 44.868 109.747 44.652 109.815 44.432C109.887 44.212 109.923 43.98 109.923 43.736C109.923 43.496 109.885 43.286 109.809 43.106C109.733 42.922 109.629 42.77 109.497 42.65C109.365 42.53 109.209 42.44 109.029 42.38C108.849 42.32 108.655 42.29 108.447 42.29C108.239 42.29 108.047 42.32 107.871 42.38C107.699 42.44 107.545 42.524 107.409 42.632C107.273 42.74 107.159 42.868 107.067 43.016C106.975 43.164 106.909 43.324 106.869 43.496C106.813 43.648 106.741 43.75 106.653 43.802C106.569 43.854 106.445 43.866 106.281 43.838L105.669 43.73C105.725 43.33 105.835 42.978 105.999 42.674C106.163 42.37 106.369 42.116 106.617 41.912C106.865 41.704 107.149 41.548 107.469 41.444C107.793 41.34 108.141 41.288 108.513 41.288C108.889 41.288 109.235 41.344 109.551 41.456C109.871 41.564 110.147 41.722 110.379 41.93C110.611 42.138 110.793 42.392 110.925 42.692C111.057 42.988 111.123 43.324 111.123 43.7C111.123 44.02 111.075 44.318 110.979 44.594C110.887 44.866 110.759 45.126 110.595 45.374C110.435 45.622 110.247 45.864 110.031 46.1C109.819 46.332 109.593 46.568 109.353 46.808L107.169 49.04C107.337 48.996 107.505 48.96 107.673 48.932C107.845 48.904 108.007 48.89 108.159 48.89H110.877ZM116.79 43.466C116.79 43.802 116.736 44.102 116.628 44.366C116.524 44.63 116.384 44.854 116.208 45.038C116.032 45.218 115.826 45.358 115.59 45.458C115.358 45.554 115.114 45.602 114.858 45.602C114.582 45.602 114.326 45.554 114.09 45.458C113.858 45.358 113.656 45.218 113.484 45.038C113.312 44.854 113.176 44.63 113.076 44.366C112.98 44.102 112.932 43.802 112.932 43.466C112.932 43.122 112.98 42.816 113.076 42.548C113.176 42.28 113.312 42.054 113.484 41.87C113.656 41.682 113.858 41.54 114.09 41.444C114.326 41.344 114.582 41.294 114.858 41.294C115.134 41.294 115.388 41.344 115.62 41.444C115.856 41.54 116.06 41.682 116.232 41.87C116.408 42.054 116.544 42.28 116.64 42.548C116.74 42.816 116.79 43.122 116.79 43.466ZM115.878 43.466C115.878 43.21 115.85 42.994 115.794 42.818C115.742 42.638 115.67 42.494 115.578 42.386C115.486 42.274 115.378 42.194 115.254 42.146C115.13 42.094 114.998 42.068 114.858 42.068C114.718 42.068 114.586 42.094 114.462 42.146C114.338 42.194 114.23 42.274 114.138 42.386C114.05 42.494 113.98 42.638 113.928 42.818C113.876 42.994 113.85 43.21 113.85 43.466C113.85 43.714 113.876 43.926 113.928 44.102C113.98 44.274 114.05 44.414 114.138 44.522C114.23 44.63 114.338 44.708 114.462 44.756C114.586 44.804 114.718 44.828 114.858 44.828C114.998 44.828 115.13 44.804 115.254 44.756C115.378 44.708 115.486 44.63 115.578 44.522C115.67 44.414 115.742 44.274 115.794 44.102C115.85 43.926 115.878 43.714 115.878 43.466ZM119.79 41.576C119.834 41.524 119.884 41.48 119.94 41.444C120 41.404 120.082 41.384 120.186 41.384H121.032L114.708 49.814C114.664 49.87 114.612 49.916 114.552 49.952C114.492 49.984 114.42 50 114.336 50H113.466L119.79 41.576ZM121.584 47.966C121.584 48.302 121.53 48.602 121.422 48.866C121.318 49.13 121.178 49.354 121.002 49.538C120.826 49.718 120.62 49.858 120.384 49.958C120.152 50.054 119.908 50.102 119.652 50.102C119.376 50.102 119.12 50.054 118.884 49.958C118.652 49.858 118.45 49.718 118.278 49.538C118.106 49.354 117.97 49.13 117.87 48.866C117.774 48.602 117.726 48.302 117.726 47.966C117.726 47.622 117.774 47.316 117.87 47.048C117.97 46.78 118.106 46.554 118.278 46.37C118.45 46.182 118.652 46.04 118.884 45.944C119.12 45.848 119.376 45.8 119.652 45.8C119.928 45.8 120.182 45.848 120.414 45.944C120.65 46.04 120.854 46.182 121.026 46.37C121.202 46.554 121.338 46.78 121.434 47.048C121.534 47.316 121.584 47.622 121.584 47.966ZM120.672 47.966C120.672 47.71 120.644 47.494 120.588 47.318C120.536 47.142 120.464 47 120.372 46.892C120.28 46.78 120.172 46.7 120.048 46.652C119.924 46.6 119.792 46.574 119.652 46.574C119.508 46.574 119.374 46.6 119.25 46.652C119.13 46.7 119.024 46.78 118.932 46.892C118.844 47 118.774 47.142 118.722 47.318C118.67 47.494 118.644 47.71 118.644 47.966C118.644 48.218 118.67 48.43 118.722 48.602C118.774 48.774 118.844 48.914 118.932 49.022C119.024 49.13 119.13 49.208 119.25 49.256C119.374 49.304 119.508 49.328 119.652 49.328C119.792 49.328 119.924 49.304 120.048 49.256C120.172 49.208 120.28 49.13 120.372 49.022C120.464 48.914 120.536 48.774 120.588 48.602C120.644 48.43 120.672 48.218 120.672 47.966Z" fill="black"/>
<path d="M146.27 78.928C146.27 79.46 146.414 79.87 146.702 80.158C146.99 80.446 147.39 80.59 147.902 80.59C148.178 80.59 148.422 80.546 148.634 80.458C148.846 80.366 149.024 80.246 149.168 80.098C149.316 79.946 149.428 79.772 149.504 79.576C149.58 79.376 149.618 79.168 149.618 78.952C149.618 78.692 149.576 78.458 149.492 78.25C149.412 78.038 149.298 77.86 149.15 77.716C149.002 77.568 148.826 77.456 148.622 77.38C148.422 77.3 148.2 77.26 147.956 77.26C147.704 77.26 147.474 77.302 147.266 77.386C147.058 77.466 146.88 77.58 146.732 77.728C146.584 77.876 146.47 78.052 146.39 78.256C146.31 78.46 146.27 78.684 146.27 78.928ZM148.634 81.592C148.79 81.388 148.936 81.188 149.072 80.992C148.856 81.156 148.614 81.28 148.346 81.364C148.082 81.448 147.8 81.49 147.5 81.49C147.184 81.49 146.88 81.436 146.588 81.328C146.3 81.22 146.044 81.062 145.82 80.854C145.6 80.642 145.424 80.382 145.292 80.074C145.16 79.766 145.094 79.412 145.094 79.012C145.094 78.636 145.164 78.282 145.304 77.95C145.444 77.618 145.64 77.33 145.892 77.086C146.148 76.838 146.452 76.644 146.804 76.504C147.16 76.36 147.55 76.288 147.974 76.288C148.394 76.288 148.774 76.356 149.114 76.492C149.458 76.628 149.75 76.82 149.99 77.068C150.23 77.312 150.416 77.606 150.548 77.95C150.68 78.294 150.746 78.672 150.746 79.084C150.746 79.336 150.722 79.576 150.674 79.804C150.63 80.032 150.564 80.254 150.476 80.47C150.392 80.686 150.288 80.9 150.164 81.112C150.044 81.32 149.906 81.534 149.75 81.754L147.68 84.724C147.624 84.804 147.542 84.87 147.434 84.922C147.33 84.974 147.21 85 147.074 85H146L148.634 81.592ZM156.329 78.466C156.329 78.802 156.275 79.102 156.167 79.366C156.063 79.63 155.923 79.854 155.747 80.038C155.571 80.218 155.365 80.358 155.129 80.458C154.897 80.554 154.653 80.602 154.397 80.602C154.121 80.602 153.865 80.554 153.629 80.458C153.397 80.358 153.195 80.218 153.023 80.038C152.851 79.854 152.715 79.63 152.615 79.366C152.519 79.102 152.471 78.802 152.471 78.466C152.471 78.122 152.519 77.816 152.615 77.548C152.715 77.28 152.851 77.054 153.023 76.87C153.195 76.682 153.397 76.54 153.629 76.444C153.865 76.344 154.121 76.294 154.397 76.294C154.673 76.294 154.927 76.344 155.159 76.444C155.395 76.54 155.599 76.682 155.771 76.87C155.947 77.054 156.083 77.28 156.179 77.548C156.279 77.816 156.329 78.122 156.329 78.466ZM155.417 78.466C155.417 78.21 155.389 77.994 155.333 77.818C155.281 77.638 155.209 77.494 155.117 77.386C155.025 77.274 154.917 77.194 154.793 77.146C154.669 77.094 154.537 77.068 154.397 77.068C154.257 77.068 154.125 77.094 154.001 77.146C153.877 77.194 153.769 77.274 153.677 77.386C153.589 77.494 153.519 77.638 153.467 77.818C153.415 77.994 153.389 78.21 153.389 78.466C153.389 78.714 153.415 78.926 153.467 79.102C153.519 79.274 153.589 79.414 153.677 79.522C153.769 79.63 153.877 79.708 154.001 79.756C154.125 79.804 154.257 79.828 154.397 79.828C154.537 79.828 154.669 79.804 154.793 79.756C154.917 79.708 155.025 79.63 155.117 79.522C155.209 79.414 155.281 79.274 155.333 79.102C155.389 78.926 155.417 78.714 155.417 78.466ZM159.329 76.576C159.373 76.524 159.423 76.48 159.479 76.444C159.539 76.404 159.621 76.384 159.725 76.384H160.571L154.247 84.814C154.203 84.87 154.151 84.916 154.091 84.952C154.031 84.984 153.959 85 153.875 85H153.005L159.329 76.576ZM161.123 82.966C161.123 83.302 161.069 83.602 160.961 83.866C160.857 84.13 160.717 84.354 160.541 84.538C160.365 84.718 160.159 84.858 159.923 84.958C159.691 85.054 159.447 85.102 159.191 85.102C158.915 85.102 158.659 85.054 158.423 84.958C158.191 84.858 157.989 84.718 157.817 84.538C157.645 84.354 157.509 84.13 157.409 83.866C157.313 83.602 157.265 83.302 157.265 82.966C157.265 82.622 157.313 82.316 157.409 82.048C157.509 81.78 157.645 81.554 157.817 81.37C157.989 81.182 158.191 81.04 158.423 80.944C158.659 80.848 158.915 80.8 159.191 80.8C159.467 80.8 159.721 80.848 159.953 80.944C160.189 81.04 160.393 81.182 160.565 81.37C160.741 81.554 160.877 81.78 160.973 82.048C161.073 82.316 161.123 82.622 161.123 82.966ZM160.211 82.966C160.211 82.71 160.183 82.494 160.127 82.318C160.075 82.142 160.003 82 159.911 81.892C159.819 81.78 159.711 81.7 159.587 81.652C159.463 81.6 159.331 81.574 159.191 81.574C159.047 81.574 158.913 81.6 158.789 81.652C158.669 81.7 158.563 81.78 158.471 81.892C158.383 82 158.313 82.142 158.261 82.318C158.209 82.494 158.183 82.71 158.183 82.966C158.183 83.218 158.209 83.43 158.261 83.602C158.313 83.774 158.383 83.914 158.471 84.022C158.563 84.13 158.669 84.208 158.789 84.256C158.913 84.304 159.047 84.328 159.191 84.328C159.331 84.328 159.463 84.304 159.587 84.256C159.711 84.208 159.819 84.13 159.911 84.022C160.003 83.914 160.075 83.774 160.127 83.602C160.183 83.43 160.211 83.218 160.211 82.966Z" fill="black"/>
<defs>
<linearGradient id="paint0_linear_898_121" x1="97" y1="0" x2="97" y2="193" gradientUnits="userSpaceOnUse">
<stop stop-color="#9E59FF"/>
<stop offset="1" stop-color="#423EE0" stop-opacity="0.38"/>
</linearGradient>
<linearGradient id="paint1_linear_898_121" x1="97" y1="0" x2="97" y2="193" gradientUnits="userSpaceOnUse">
<stop stop-color="#9E59FF"/>
<stop offset="1" stop-color="#423EE0" stop-opacity="0.38"/>
</linearGradient>
<linearGradient id="paint2_linear_898_121" x1="97" y1="0" x2="97" y2="193" gradientUnits="userSpaceOnUse">
<stop stop-color="#9E59FF"/>
<stop offset="1" stop-color="#423EE0" stop-opacity="0.38"/>
</linearGradient>
<linearGradient id="paint3_linear_898_121" x1="97" y1="0" x2="97" y2="193" gradientUnits="userSpaceOnUse">
<stop stop-color="#B8C0CC"/>
<stop offset="1" stop-color="#423EE0" stop-opacity="0.38"/>
</linearGradient>
<linearGradient id="paint4_linear_898_121" x1="97" y1="0" x2="97" y2="193" gradientUnits="userSpaceOnUse">
<stop stop-color="#9E59FF"/>
<stop offset="1" stop-color="#423EE0" stop-opacity="0.38"/>
</linearGradient>
</defs>
</svg>
